<?xml version="1.0" encoding="UTF-8" standalone="no"?>
<!-- Generator: Adobe Illustrator 16.0.0, SVG Export Plug-In . SVG Version: 6.00 Build 0)  -->

<svg
   xmlns:dc="http://purl.org/dc/elements/1.1/"
   xmlns:cc="http://creativecommons.org/ns#"
   xmlns:rdf="http://www.w3.org/1999/02/22-rdf-syntax-ns#"
   xmlns:svg="http://www.w3.org/2000/svg"
   xmlns="http://www.w3.org/2000/svg"
   xmlns:sodipodi="http://sodipodi.sourceforge.net/DTD/sodipodi-0.dtd"
   xmlns:inkscape="http://www.inkscape.org/namespaces/inkscape"
   version="1.1"
   id="svg2"
   inkscape:output_extension="org.inkscape.output.svg.inkscape"
   sodipodi:docname="geopuntGipod.svg"
   inkscape:version="0.91pre4 r13712"
   sodipodi:version="0.32"
   x="0px"
   y="0px"
   width="75.56134mm"
   height="76.860458mm"
   viewBox="0 0 267.73703 272.34021"
   enable-background="new 0 0 580 580"
   xml:space="preserve"><metadata
     id="metadata25"><rdf:RDF><cc:Work
         rdf:about=""><dc:format>image/svg+xml</dc:format><dc:type
           rdf:resource="http://purl.org/dc/dcmitype/StillImage" /><dc:title></dc:title></cc:Work></rdf:RDF></metadata><sodipodi:namedview
     showgrid="true"
     inkscape:cy="259.74517"
     inkscape:cx="138.38063"
     inkscape:zoom="1.3034483"
     pagecolor="#ffffff"
     bordercolor="#666666"
     guidetolerance="10.0"
     objecttolerance="10.0"
     gridtolerance="10.0"
     borderopacity="1.0"
     id="base"
     inkscape:current-layer="svg2"
     inkscape:window-y="4"
     inkscape:window-x="-1"
     inkscape:pageopacity="0.0"
     inkscape:pageshadow="2"
     inkscape:window-height="936"
     inkscape:window-width="1271"
     inkscape:snap-grids="true"
     units="mm"
     fit-margin-top="0"
     fit-margin-left="0"
     fit-margin-right="0"
     fit-margin-bottom="0"
     inkscape:window-maximized="0"><inkscape:grid
       type="xygrid"
       id="grid4571"
       originx="-0.39074516"
       originy="-0.39075093" /></sodipodi:namedview><defs
     id="defs4"><inkscape:perspective
       inkscape:vp_z="580 : 290 : 1"
       inkscape:vp_y="0 : 1000 : 0"
       inkscape:vp_x="0 : 290 : 1"
       sodipodi:type="inkscape:persp3d"
       id="perspective2441"
       inkscape:persp3d-origin="290 : 193.33333 : 1" /><inkscape:perspective
       inkscape:vp_z="744.09448 : 526.18109 : 1"
       inkscape:vp_y="0 : 1000 : 0"
       inkscape:vp_x="0 : 526.18109 : 1"
       sodipodi:type="inkscape:persp3d"
       id="perspective2466"
       inkscape:persp3d-origin="372.04724 : 350.78739 : 1" /><inkscape:perspective
       inkscape:vp_z="744.09448 : 526.18109 : 1"
       inkscape:vp_y="0 : 1000 : 0"
       inkscape:vp_x="0 : 526.18109 : 1"
       sodipodi:type="inkscape:persp3d"
       id="perspective3333"
       inkscape:persp3d-origin="372.04724 : 350.78739 : 1" /><inkscape:perspective
       inkscape:vp_z="744.09448 : 526.18109 : 1"
       inkscape:vp_y="0 : 1000 : 0"
       inkscape:vp_x="0 : 526.18109 : 1"
       sodipodi:type="inkscape:persp3d"
       id="perspective3401"
       inkscape:persp3d-origin="372.04724 : 350.78739 : 1" /><inkscape:perspective
       inkscape:vp_z="744.09448 : 526.18109 : 1"
       inkscape:vp_y="0 : 1000 : 0"
       inkscape:vp_x="0 : 526.18109 : 1"
       sodipodi:type="inkscape:persp3d"
       id="perspective3464"
       inkscape:persp3d-origin="372.04724 : 350.78739 : 1" /><inkscape:perspective
       inkscape:vp_z="450 : 225 : 1"
       inkscape:vp_y="0 : 1000 : 0"
       inkscape:vp_x="0 : 225 : 1"
       sodipodi:type="inkscape:persp3d"
       id="perspective3581"
       inkscape:persp3d-origin="225 : 150 : 1" /><inkscape:perspective
       inkscape:vp_z="450 : 225 : 1"
       inkscape:vp_y="0 : 1000 : 0"
       inkscape:vp_x="0 : 225 : 1"
       sodipodi:type="inkscape:persp3d"
       id="perspective4312"
       inkscape:persp3d-origin="225 : 150 : 1" /><inkscape:perspective
       inkscape:vp_z="744.09448 : 526.18109 : 1"
       inkscape:vp_y="0 : 1000 : 0"
       inkscape:vp_x="0 : 526.18109 : 1"
       sodipodi:type="inkscape:persp3d"
       id="perspective8860"
       inkscape:persp3d-origin="372.04724 : 350.78739 : 1" /><inkscape:perspective
       inkscape:vp_z="744.09448 : 526.18109 : 1"
       inkscape:vp_y="0 : 1000 : 0"
       inkscape:vp_x="0 : 526.18109 : 1"
       sodipodi:type="inkscape:persp3d"
       id="perspective8887"
       inkscape:persp3d-origin="372.04724 : 350.78739 : 1" /><inkscape:perspective
       inkscape:vp_z="32 : 16 : 1"
       inkscape:vp_y="0 : 1000 : 0"
       inkscape:vp_x="0 : 16 : 1"
       sodipodi:type="inkscape:persp3d"
       id="perspective4904"
       inkscape:persp3d-origin="16 : 10.666667 : 1" /><inkscape:perspective
       inkscape:vp_z="12 : 6 : 1"
       inkscape:vp_y="0 : 1000 : 0"
       inkscape:vp_x="0 : 6 : 1"
       sodipodi:type="inkscape:persp3d"
       id="perspective4668"
       inkscape:persp3d-origin="6 : 4 : 1" /><inkscape:perspective
       inkscape:vp_z="744.09448 : 526.18109 : 1"
       inkscape:vp_y="0 : 1000 : 0"
       inkscape:vp_x="0 : 526.18109 : 1"
       sodipodi:type="inkscape:persp3d"
       id="perspective4471"
       inkscape:persp3d-origin="372.04724 : 350.78739 : 1" /><inkscape:perspective
       inkscape:vp_z="60 : 30 : 1"
       inkscape:vp_y="0 : 1000 : 0"
       inkscape:vp_x="0 : 30 : 1"
       sodipodi:type="inkscape:persp3d"
       id="perspective3452"
       inkscape:persp3d-origin="29.999999 : 20 : 1" /><inkscape:perspective
       inkscape:vp_z="580 : 290 : 1"
       inkscape:vp_y="0 : 1000 : 0"
       inkscape:vp_x="0 : 290 : 1"
       sodipodi:type="inkscape:persp3d"
       id="perspective9479"
       inkscape:persp3d-origin="290 : 193.33333 : 1" /></defs><g
     id="layer3"
     transform="matrix(48.14969,0,0,48.14969,-1210.6126,-359.13995)"
     inkscape:label="Layout"
     display="none"
     style="display:none"><rect
       id="rect4134"
       x="1"
       y="1"
       display="inline"
       width="10"
       height="10"
       style="display:inline;fill:none;stroke:#757575;stroke-width:0.1" /><rect
       id="rect4136"
       x="2"
       y="2"
       display="inline"
       width="8"
       height="8"
       style="display:inline;fill:none;stroke:#757575;stroke-width:0.1" /></g><g
     inkscape:groupmode="layer"
     id="layer5"
     inkscape:label="basis"
     style="display:inline"
     sodipodi:insensitive="true"><ellipse
       style="fill:#ffffff;fill-rule:evenodd;stroke:#fff700;stroke-width:20.70000076;stroke-linecap:butt;stroke-linejoin:miter;stroke-miterlimit:4;stroke-dasharray:none;stroke-opacity:1"
       id="path3353"
       cx="133.86852"
       cy="136.1701"
       rx="123.51852"
       ry="125.82011" /></g><g
     inkscape:groupmode="layer"
     id="layer4"
     inkscape:label="icoon" /><path
     style="fill:#ffffff;fill-opacity:1;stroke:#000000;stroke-width:0.76719576;stroke-miterlimit:4;stroke-dasharray:none;stroke-opacity:0.76078431"
     d=""
     id="path5328"
     inkscape:connector-curvature="0" /><g
     id="g5336"
     style="fill:#000000;stroke:none;stroke-opacity:0.76078433"
     transform="matrix(1.0887962,0,0,1.2190445,59.162469,520.01912)"><path
       inkscape:connector-curvature="0"
       id="path5326"
       d="m 79.074229,-291.64464 c -0.700304,-0.74146 -2.246418,-2.1048 -3.435817,-3.02965 -1.189397,-0.92485 -6.478017,-5.14041 -11.752487,-9.36792 -9.357279,-7.49989 -9.621052,-7.64963 -10.872028,-6.17195 -0.705145,0.83293 -1.437544,1.94135 -1.627553,2.46315 -0.25616,0.70347 -0.708107,0.73506 -1.7482,0.12221 -2.391958,-1.4094 -4.258528,-4.5368 -4.70805,-7.88823 -0.341177,-2.54367 -1.03878,-3.69311 -3.354467,-5.52717 -3.305079,-2.61767 -4.335747,-4.87151 -2.976608,-6.50918 1.215692,-1.46482 1.694883,-1.41005 3.824731,0.43716 0.993894,0.862 2.080693,1.25892 2.446211,0.8934 0.988778,-0.98878 0.396608,-17.22135 -0.640789,-17.56532 -0.810492,-0.26874 -9.496686,14.10728 -9.496686,15.71741 0,0.41244 -0.517545,1.17941 -1.1501,1.70439 -0.91904,0.76273 -1.651173,0.75182 -3.64418,-0.0543 -1.371744,-0.55485 -2.666699,-1.21296 -2.877677,-1.46247 -0.210979,-0.24951 -2.755308,-1.65007 -5.654065,-3.11234 -2.898756,-1.46227 -5.428208,-3.06296 -5.621003,-3.55709 -0.192796,-0.49413 3.167661,-7.97237 7.467682,-16.61831 4.30002,-8.64594 7.585883,-16.09582 7.301916,-16.55529 -0.295151,-0.47756 -2.888513,-0.83539 -6.054491,-0.83539 -4.701098,0 -5.749628,0.24694 -6.937075,1.63378 -1.542324,1.8013 -6.614075,12.03133 -6.614075,13.34099 0,0.45371 1.34061,2.13401 2.979134,3.73398 2.03513,1.98725 2.857636,3.37366 2.595706,4.37528 -0.210885,0.80643 -0.536493,1.46623 -0.723572,1.46623 -0.187079,0 -1.944972,-1.22538 -3.906429,-2.72306 l -3.566285,-2.72306 -1.3617847,1.76407 c -0.7489823,0.97023 -1.5568254,2.34759 -1.7952071,3.0608 -0.3669965,1.09801 -0.7804625,0.9336 -2.6978621,-1.07278 -1.90772649,-1.99625 -2.26444091,-2.99172 -2.26444091,-6.31927 0,-2.43128 0.46106279,-4.5259 1.19928551,-5.44838 1.2493591,-1.56121 5.330415,-8.27835 9.6860633,-15.94262 l 2.540577,-4.47043 18.36947,0.55119 c 10.103207,0.30316 18.73416,0.85937 19.179893,1.23602 0.445733,0.37666 1.500901,1.16234 2.344816,1.74598 1.393462,0.96368 1.555586,2.0711 1.765153,12.05716 0.126918,6.04781 -0.09927,18.59126 -0.502646,27.87433 l -0.733406,16.8783 4.278262,3.83598 c 2.353044,2.10979 7.585186,6.72335 11.626984,10.25236 11.245454,9.81873 12.42234,10.96858 12.128581,11.84987 -0.462389,1.38715 -1.684969,1.37101 -3.017481,-0.0398 l 0,-10e-6 z"
       style="fill:#000000;fill-opacity:1;stroke:none;stroke-width:0.76719576;stroke-miterlimit:4;stroke-dasharray:none;stroke-opacity:0.76078433" /><path
       inkscape:connector-curvature="0"
       id="path5330"
       d="m 40.449937,-259.93104 c -3.403826,-1.48264 -4.950513,-4.31422 -4.948745,-9.05985 8.31e-4,-2.23013 -0.551787,-9.39793 -1.228041,-15.92845 -1.279266,-12.35378 -1.447934,-12.84827 -6.672896,-19.56322 -0.336088,-0.43193 -2.328039,-3.20199 -4.426559,-6.15569 -2.09852,-2.95371 -4.234119,-5.37037 -4.745776,-5.37037 -0.511657,0 -7.495896,11.58679 -15.5205312,25.74844 -8.0246352,14.16164 -15.3445768,26.76283 -16.2665368,28.00264 l -1.676292,2.25421 -1.186413,-2.81817 c -2.129955,-5.05943 -1.832747,-10.38795 0.869814,-15.59453 1.314144,-2.53175 3.367791,-6.50199 4.563659,-8.82275 1.1958683,-2.32077 2.3469251,-4.3922 2.5579039,-4.60318 0.2109788,-0.21098 0.9783395,-1.59193 1.7052452,-3.06878 3.7888062,-7.6977 18.2832069,-33.69162 19.0514439,-34.16642 0.357795,-0.22113 3.17022,0.83585 6.249834,2.34885 10.130915,4.97726 12.242993,6.50133 15.123267,10.91293 1.308064,2.0035 2.718705,4.16059 3.134759,4.79353 4.507641,6.8574 5.547073,8.68181 6.155977,10.80493 0.388917,1.35608 0.899025,9.40532 1.133574,17.88721 0.234549,8.48189 0.592177,17.23411 0.794729,19.44939 0.412413,4.51048 -0.19838,4.89635 -4.668416,2.94928 z"
       style="fill:#000000;fill-opacity:1;stroke:none;stroke-width:0.76719576;stroke-miterlimit:4;stroke-dasharray:none;stroke-opacity:0.76078433" /><path
       inkscape:connector-curvature="0"
       id="path5332"
       d="m 55.446771,-259.97147 c 0,-1.32864 13.065349,-16.8109 18.802373,-22.28054 2.212924,-2.10979 5.506011,-4.87169 7.317971,-6.13757 1.81196,-1.26587 6.774353,-6.40729 11.027541,-11.42537 8.521374,-10.05386 11.216974,-11.9741 16.809074,-11.9741 6.03063,0 7.00263,0.88957 20.95745,19.1799 16.52959,21.66503 22.40439,29.77751 23.45373,32.38713 0.52516,1.30604 -1.74039,1.36948 -48.90873,1.36948 -42.826381,0 -49.459409,-0.15006 -49.459409,-1.11893 z"
       style="fill:#000000;fill-opacity:1;stroke:none;stroke-width:0.76719576;stroke-miterlimit:4;stroke-dasharray:none;stroke-opacity:0.76078433" /><path
       inkscape:connector-curvature="0"
       id="path5334"
       d="m 63.118729,-373.8802 c 0,-0.39353 -0.694763,-0.93601 -1.543919,-1.20552 -2.439084,-0.77414 -5.360843,-5.69888 -5.360843,-9.03592 0,-7.55781 6.185589,-12.14637 13.973493,-10.36574 4.888546,1.11771 7.836786,4.94065 7.836786,10.16183 0,4.4215 -1.69632,7.30433 -5.747829,9.7682 -2.385132,1.45049 -9.157688,1.95127 -9.157688,0.67715 z"
       style="fill:#000000;fill-opacity:1;stroke:none;stroke-width:0.76719576;stroke-miterlimit:4;stroke-dasharray:none;stroke-opacity:0.76078433" /></g></svg>